# xmcd
#
# Track frame offsets:
#	150
#	12397
#	25888
#	37602
#	60287
#	71554
#	85015
#	100173
#	111392
#	124874
#	138855
#	153018
#	168427
#	181129
#	198054
#
# Disc length: 2823 seconds
# Revision: 0
# Processed by: cddbd v1.5.2PL0 Copyright (c) Steve Scherf et al.
# Submitted via: dBpowerAMP V12.0
#
DISCID=ae0b050f
DTITLE=Williams, Johnny - Lasy Day of Galax
DYEAR=2009
DGENRE=Bluegrass
TTITLE0=Helping Hand
TTITLE1=Your Love Holds The Key
TTITLE2=Midnight Rider
TTITLE3=Last Day of Galax
TTITLE4=I Can't Help It If I'm Still In Love With You
TTITLE5=Slowly Getting You Out Of The Way
TTITLE6=Country Living's Changing Every Day
TTITLE7=Swampcat Rag (Instrumental)
TTITLE8=A Change In Me
TTITLE9=Papa Loved Ringing That Bell
TTITLE10=What Are You Trying To Say
TTITLE11=Sins Of War
TTITLE12=Going To A Mansion
TTITLE13=Back To MY Old Ways Of Living
TTITLE14=Let That Someone Be You
EXTD=
EXTT0=
EXTT1=
EXTT2=
EXTT3=
EXTT4=
EXTT5=
EXTT6=
EXTT7=
EXTT8=
EXTT9=
EXTT10=
EXTT11=
EXTT12=
EXTT13=
EXTT14=
PLAYORDER=
